<svg version="1.0" xmlns="http://www.w3.org/2000/svg" width="341.333" height="341.333" viewBox="0 0 256 256"><path d="M0 128v128h256V0H0v128zm91.1-46c1 2.5 9.8 24.7 19.5 49.5 9.6 24.7 17.8 45.6 18.1 46.2.4 1-2 1.3-10 1.3h-10.4l-3.5-9.3-3.5-9.2-23.5-.3-23.5-.2-3.5 9.2-3.5 9.3-10.2.3-10.3.3.7-2.3c.4-1.3 9.3-24.3 19.8-51.1l19.1-48.8 11.5.3 11.5.3 1.7 4.5zm115.5-1.8c9.4 4.9 13.4 12.1 13.4 23.4-.1 9.4-5.5 18.3-13.1 21.4l-2.8 1.2 4.8 2.5c8.4 4.1 13.1 12.5 13.1 23.2 0 12-6 21.1-16.6 25.1-5.1 1.8-7.7 2-34.9 2H141V76.9l30.3.3 30.2.3 5.1 2.7z"/><path d="M68.6 119.8C63.9 132.4 60 143 60 143.3c0 .8 34.4.9 35.2.2.6-.7-16.4-46.5-17.3-46.5-.3 0-4.5 10.3-9.3 22.8zm90.4-13.7v13.1l17.3-.4c16.1-.3 17.4-.5 20.4-2.6 6.9-4.9 6.6-16.1-.6-20.9-3.2-2.2-4.4-2.3-20.2-2.3H159v13.1zm0 42.9v14h17.3c20.5 0 23-.8 26.1-8.2 2.5-6.1 1.6-11.2-2.9-15.4-4.3-4-6.5-4.4-25.1-4.4H159v14z"/></svg>